<?xml version="1.0" encoding="UTF-8"?>
<svg width="145px" height="145px" viewBox="0 0 145 145" version="1.1" xmlns="http://www.w3.org/2000/svg" xmlns:xlink="http://www.w3.org/1999/xlink">
    <!-- Generator: Sketch 56.3 (81716) - https://sketch.com -->
    <title>p2p2</title>
    <desc>Created with Sketch.</desc>
    <g id="p2p2" stroke="none" stroke-width="1" fill="none" fill-rule="evenodd">
        <path d="M95.1891603,83 C99.0383004,85.4966811 102.634895,89.1951544 105.386769,93.8330568 C112.34483,105.546299 111.317231,118.791404 103.079027,123.403916 C94.8408219,128.024892 82.5270571,122.269831 75.5602877,110.556588 C74.5326893,108.83007 73.67926,107.069698 73,105.300863" id="Path" stroke="#000000" stroke-width="5"></path>
        <path d="M53,85.8786039 C48.9555556,87.839909 43.9764706,89 38.5980392,89 C25.0117647,89 14,81.6138088 14,72.5 C14,63.3861912 25.0117647,56 38.5980392,56 C40.603268,56 42.5490196,56.1585736 44.4183007,56.4673748" id="Path" stroke="#000000" stroke-width="5"></path>
        <path d="M71,48.4823221 C71.2961315,43.9903613 72.8029179,39.1085321 75.5551985,34.4640141 C82.5142876,22.7340635 94.8385818,16.970793 103.078004,21.5983602 C111.317426,26.2259274 112.345176,39.4814496 105.386087,51.2114002 C104.358337,52.9403814 103.21736,54.5422316 101.980576,56" id="Path" stroke="#000000" stroke-width="5"></path>
        <path d="M51.4105467,62 C47.6654375,59.5033189 44.1660481,55.8048456 41.4885491,51.1669432 C34.718544,39.4537006 35.7183695,26.208596 43.7339201,21.5960835 C51.7494706,16.9751077 63.730431,22.7301691 70.5089092,34.4434118 C71.5087348,36.1699302 72.3390984,37.9303019 73,39.699137" id="Path" stroke="#000000" stroke-width="5"></path>
        <path d="M75,96.5092025 C74.7114617,101.001163 73.2433107,105.891468 70.5616015,110.535986 C63.7809506,122.265937 51.7726639,128.029207 43.744509,123.40164 C35.7163542,118.774073 34.7149564,105.51855 41.4956073,93.7885998 C42.4970051,92.0596186 43.6087263,90.4577684 44.8137982,89" id="Path" stroke="#000000" stroke-width="5"></path>
        <path d="M93,59.1213961 C97.0444444,57.160091 102.023529,56 107.401961,56 C120.988235,56 132,63.3861912 132,72.5 C132,81.6138088 120.988235,89 107.401961,89 C105.396732,89 103.45098,88.8414264 101.581699,88.5326252" id="Path" stroke="#000000" stroke-width="5"></path>
        <ellipse id="Oval" stroke="#000000" stroke-width="5" cx="73" cy="72.5" rx="24" ry="23.5"></ellipse>
    </g>
</svg>