<?xml version="1.0" encoding="UTF-8"?>
<svg width="145px" height="145px" viewBox="0 0 145 145" version="1.1" xmlns="http://www.w3.org/2000/svg" xmlns:xlink="http://www.w3.org/1999/xlink">
    <!-- Generator: Sketch 56.3 (81716) - https://sketch.com -->
    <title>p2p4</title>
    <desc>Created with Sketch.</desc>
    <g id="p2p4" stroke="none" stroke-width="1" fill="none" fill-rule="evenodd">
        <circle id="Oval" stroke="#000000" stroke-width="5" cx="72.5" cy="72.5" r="57.5"></circle>
        <path d="M59.2117166,79 C56.8177695,80.5469263 54.5872074,82.8363772 52.8681118,85.7033473 C48.541958,92.9567129 49.181291,101.151985 54.3030594,104.01208 C59.4248277,106.872174 67.0826172,103.310806 71.408771,96.0574407 C72.0481041,94.9849051 72.5808816,93.8986191 73,92.8054578" id="Path" stroke="#000000" stroke-width="5"></path>
        <path d="M85,81.0129482 C87.490566,82.2609562 90.5506003,83 93.864494,83 C102.221269,83 109,78.3007968 109,72.5 C109,66.6992032 102.221269,62 93.864494,62 C92.6295026,62 91.4288165,62.1045817 90.2830189,62.2928287" id="Path" stroke="#000000" stroke-width="5"></path>
        <path d="M74,57.1907111 C73.8171562,54.3207661 72.8888723,51.2021873 71.1940509,48.2398926 C66.9112864,40.7453582 59.330301,37.0655773 54.2599016,40.0207681 C49.1895023,42.9759589 48.5565815,51.4437173 52.8393459,58.9382518 C53.4722668,60.0464484 54.1755122,61.069399 54.9350172,62" id="Path" stroke="#000000" stroke-width="5"></path>
        <path d="M86.1887928,66 C88.4786553,64.3940012 90.6190313,62.017123 92.2565887,59.0335341 C96.3946489,51.5031842 95.7831129,42.9949595 90.8840302,40.0256462 C85.9849474,37.0563329 78.6601053,40.753699 74.5220451,48.2840489 C73.9105091,49.3975414 73.4008958,50.5253094 73,51.6602152" id="Path" stroke="#000000" stroke-width="5"></path>
        <path d="M71,87.5933945 C71.1828438,90.3385592 72.1111277,93.3215476 73.8059491,96.1618418 C78.0887136,103.330527 85.669699,106.850317 90.7400984,104.023613 C95.8104977,101.196909 96.4434185,93.0973139 92.1606541,85.9286287 C91.5277332,84.8686146 90.8244878,83.8901401 90.0649828,83" id="Path" stroke="#000000" stroke-width="5"></path>
        <path d="M60,63.9870518 C57.509434,62.7390438 54.4493997,62 51.135506,62 C42.7787307,62 36,66.6992032 36,72.5 C36,78.3007968 42.7787307,83 51.135506,83 C52.3704974,83 53.5711835,82.8954183 54.7169811,82.7071713" id="Path" stroke="#000000" stroke-width="5"></path>
        <circle id="Oval" stroke="#000000" stroke-width="5" cx="73" cy="72" r="15"></circle>
    </g>
</svg>